<svg xmlns="http://www.w3.org/2000/svg" width="800" height="600" viewBox="0 0 800 600" role="img" aria-label="示例插画：星云焰火">
  <defs>
    <linearGradient id="bg" x1="0" y1="0" x2="0" y2="1">
      <stop offset="0" stop-color="#05070f"/>
      <stop offset="1" stop-color="#0a0f1e"/>
    </linearGradient>
    <radialGradient id="nebP" cx="0.5" cy="0.5" r="0.5">
      <stop offset="0" stop-color="#8f7bff" stop-opacity="0.5"/>
      <stop offset="0.6" stop-color="#8f7bff" stop-opacity="0.18"/>
      <stop offset="1" stop-color="#8f7bff" stop-opacity="0"/>
    </radialGradient>
    <radialGradient id="nebC" cx="0.5" cy="0.5" r="0.5">
      <stop offset="0" stop-color="#55d6ff" stop-opacity="0.45"/>
      <stop offset="0.6" stop-color="#55d6ff" stop-opacity="0.15"/>
      <stop offset="1" stop-color="#55d6ff" stop-opacity="0"/>
    </radialGradient>
    <radialGradient id="nebG" cx="0.5" cy="0.5" r="0.5">
      <stop offset="0" stop-color="#ffd37a" stop-opacity="0.5"/>
      <stop offset="0.55" stop-color="#ffd37a" stop-opacity="0.16"/>
      <stop offset="1" stop-color="#ffd37a" stop-opacity="0"/>
    </radialGradient>
  </defs>
  <rect width="800" height="600" fill="url(#bg)"/>
  <ellipse cx="250" cy="230" rx="230" ry="160" fill="url(#nebP)"/>
  <ellipse cx="540" cy="300" rx="250" ry="180" fill="url(#nebC)"/>
  <ellipse cx="400" cy="430" rx="180" ry="110" fill="url(#nebG)"/>
  <g fill="#dde6f7">
    <circle cx="90" cy="80" r="1.4" opacity="0.7"/>
    <circle cx="710" cy="70" r="1.3" opacity="0.6"/>
    <circle cx="620" cy="520" r="1.2" opacity="0.5"/>
    <circle cx="140" cy="500" r="1.4" opacity="0.6"/>
    <circle cx="360" cy="90" r="1.1" opacity="0.5"/>
    <circle cx="750" cy="380" r="1.1" opacity="0.5"/>
    <circle cx="60" cy="360" r="1" opacity="0.45"/>
  </g>
  <path d="M120 480 Q 400 360 690 470" fill="none" stroke="#ffd37a" stroke-opacity="0.4" stroke-width="1.6"/>
  <path d="M150 520 Q 400 420 660 515" fill="none" stroke="#ffd37a" stroke-opacity="0.22" stroke-width="1.2"/>
  <path d="M400 130 l8 18 18 8 -18 8 -8 18 -8 -18 -18 -8 18 -8 z" fill="#ffd37a" opacity="0.95"/>
  <path d="M250 300 l6 13 13 6 -13 6 -6 13 -6 -13 -13 -6 13 -6 z" fill="#dde6f7" opacity="0.85"/>
  <path d="M560 220 l5 12 12 5 -12 5 -5 12 -5 -12 -12 -5 12 -5 z" fill="#55d6ff" opacity="0.9"/>
  <path d="M620 400 l4 10 10 4 -10 4 -4 10 -4 -10 -10 -4 10 -4 z" fill="#ffd37a" opacity="0.8"/>
  <path d="M300 420 l4 9 9 4 -9 4 -4 9 -4 -9 -9 -4 9 -4 z" fill="#8f7bff" opacity="0.85"/>
  <circle cx="470" cy="330" r="3" fill="#dde6f7" opacity="0.9"/>
  <circle cx="200" cy="180" r="2.5" fill="#55d6ff" opacity="0.8"/>
  <circle cx="660" cy="160" r="2.5" fill="#8f7bff" opacity="0.8"/>
</svg>
