<svg xmlns="http://www.w3.org/2000/svg" width="960" height="540" viewBox="0 0 960 540" role="img" aria-label="示例插画：渐隐的光环">
  <defs>
    <radialGradient id="bg" cx="0.5" cy="0.5" r="0.8">
      <stop offset="0" stop-color="#0a0f1e"/>
      <stop offset="1" stop-color="#05070f"/>
    </radialGradient>
    <radialGradient id="corona" cx="0.5" cy="0.5" r="0.5">
      <stop offset="0" stop-color="#ffd37a" stop-opacity="0"/>
      <stop offset="0.62" stop-color="#ffd37a" stop-opacity="0.05"/>
      <stop offset="0.72" stop-color="#ffd37a" stop-opacity="0.35"/>
      <stop offset="0.8" stop-color="#ffd37a" stop-opacity="0.1"/>
      <stop offset="1" stop-color="#ffd37a" stop-opacity="0"/>
    </radialGradient>
    <linearGradient id="hline" x1="0" y1="0" x2="1" y2="0">
      <stop offset="0" stop-color="#55d6ff" stop-opacity="0"/>
      <stop offset="0.5" stop-color="#55d6ff" stop-opacity="0.5"/>
      <stop offset="1" stop-color="#55d6ff" stop-opacity="0"/>
    </linearGradient>
  </defs>
  <rect width="960" height="540" fill="url(#bg)"/>
  <g fill="#dde6f7">
    <circle cx="120" cy="100" r="1.2" opacity="0.5"/>
    <circle cx="300" cy="60" r="1" opacity="0.4"/>
    <circle cx="840" cy="120" r="1.3" opacity="0.5"/>
    <circle cx="700" cy="450" r="1.1" opacity="0.4"/>
    <circle cx="180" cy="440" r="1.2" opacity="0.45"/>
    <circle cx="880" cy="320" r="1" opacity="0.4"/>
    <circle cx="80" cy="280" r="1" opacity="0.35"/>
  </g>
  <circle cx="480" cy="270" r="210" fill="url(#corona)"/>
  <rect x="120" y="268" width="720" height="4" fill="url(#hline)" opacity="0.5"/>
  <circle cx="480" cy="270" r="152" fill="none" stroke="#55d6ff" stroke-opacity="0.22" stroke-width="2"/>
  <path d="M480 422 A152 152 0 0 0 620 178" fill="none" stroke="#ffd37a" stroke-opacity="0.75" stroke-width="3.5" stroke-linecap="round"/>
  <path d="M340 200 A152 152 0 0 1 420 130" fill="none" stroke="#8f7bff" stroke-opacity="0.45" stroke-width="2" stroke-linecap="round"/>
  <circle cx="480" cy="270" r="140" fill="#05070f"/>
  <path d="M355 340 A140 140 0 0 0 480 410" fill="none" stroke="#8f7bff" stroke-opacity="0.3" stroke-width="1.5" stroke-linecap="round"/>
  <circle cx="622" cy="176" r="5" fill="#ffd37a"/>
  <circle cx="622" cy="176" r="11" fill="none" stroke="#ffd37a" stroke-opacity="0.35"/>
  <circle cx="480" cy="270" r="3" fill="#55d6ff" opacity="0.6"/>
  <circle cx="760" cy="200" r="2" fill="#ffd37a" opacity="0.6"/>
  <circle cx="230" cy="360" r="2" fill="#55d6ff" opacity="0.5"/>
</svg>
